<svg width="24" height="24" viewBox="0 0 24 24" fill="none" xmlns="http://www.w3.org/2000/svg">
<g id="Hardware / phone iphone">
<mask id="mask0_70_8375" style="mask-type:alpha" maskUnits="userSpaceOnUse" x="5" y="1" width="14" height="22">
<path id="icon/hardware/phone_iphone_24px" fill-rule="evenodd" clip-rule="evenodd" d="M16 1H8C6.62 1 5.5 2.12 5.5 3.5V20.5C5.5 21.88 6.62 23 8 23H16C17.38 23 18.5 21.88 18.5 20.5V3.5C18.5 2.12 17.38 1 16 1ZM12 22C11.17 22 10.5 21.33 10.5 20.5C10.5 19.67 11.17 19 12 19C12.83 19 13.5 19.67 13.5 20.5C13.5 21.33 12.83 22 12 22ZM7.5 18H16.5V4H7.5V18Z" fill="black"/>
</mask>
<g mask="url(#mask0_70_8375)">
<rect id="Color Fill" width="24" height="24" fill="#858C94"/>
</g>
</g>
</svg>
