<svg width="24" height="24" viewBox="0 0 24 24" fill="none" xmlns="http://www.w3.org/2000/svg">
<g id="Communication / forum">
<mask id="mask0_70_6438" style="mask-type:alpha" maskUnits="userSpaceOnUse" x="2" y="2" width="20" height="20">
<g id="Icon Mask">
<path id="Round" fill-rule="evenodd" clip-rule="evenodd" d="M17 4V11C17 12.1 16.1 13 15 13H6L2 17V4C2 2.9 2.9 2 4 2H15C16.1 2 17 2.9 17 4ZM19 6H20C21.1 6 22 6.9 22 8V22L18 18H8C6.9 18 6 17.1 6 16V15H18C18.55 15 19 14.55 19 14V6Z" fill="black"/>
</g>
</mask>
<g mask="url(#mask0_70_6438)">
<rect id="Color Fill" width="24" height="24" fill="#858C94"/>
</g>
</g>
</svg>
