<svg width="24" height="24" viewBox="0 0 24 24" fill="none" xmlns="http://www.w3.org/2000/svg">
<g id="Social / notifications">
<mask id="mask0_70_11114" style="mask-type:alpha" maskUnits="userSpaceOnUse" x="4" y="2" width="16" height="20">
<g id="Icon Mask">
<path id="Round" fill-rule="evenodd" clip-rule="evenodd" d="M18.0005 10.75V15.75L19.2905 17.04C19.9205 17.67 19.4705 18.75 18.5805 18.75H5.41054C4.52054 18.75 4.08054 17.67 4.71054 17.04L6.00054 15.75V10.75C6.00054 7.67 7.63054 5.11 10.5005 4.43V3.75C10.5005 2.92 11.1705 2.25 12.0005 2.25C12.8305 2.25 13.5005 2.92 13.5005 3.75V4.43C16.3605 5.11 18.0005 7.68 18.0005 10.75ZM14.0005 19.75C14.0005 20.85 13.1005 21.75 12.0005 21.75C10.8905 21.75 10.0005 20.85 10.0005 19.75H14.0005Z" fill="black"/>
</g>
</mask>
<g mask="url(#mask0_70_11114)">
<rect id="Color Fill" width="24" height="24" fill="#858C94"/>
</g>
</g>
</svg>
