<svg width="24" height="24" viewBox="0 0 24 24" fill="none" xmlns="http://www.w3.org/2000/svg">
<g id="Image / brush">
<mask id="mask0_70_9211" style="mask-type:alpha" maskUnits="userSpaceOnUse" x="2" y="2" width="20" height="20">
<g id="Icon Mask">
<path id="Round" fill-rule="evenodd" clip-rule="evenodd" d="M19.87 3.29102L21.21 4.63102C21.6 5.02102 21.6 5.65102 21.21 6.04102L12.25 15.001L9.5 12.251L18.46 3.29102C18.6468 3.10377 18.9005 2.99854 19.165 2.99854C19.4295 2.99854 19.6832 3.10377 19.87 3.29102ZM4.5 17.001C4.5 15.341 5.84 14.001 7.5 14.001C9.16 14.001 10.5 15.341 10.5 17.001C10.5 19.211 8.71 21.001 6.5 21.001C4.99 21.001 3.42 20.221 2.5 19.001C3.34 19.001 4.5 18.311 4.5 17.001Z" fill="black"/>
</g>
</mask>
<g mask="url(#mask0_70_9211)">
<rect id="Color Fill" width="24" height="24" fill="#858C94"/>
</g>
</g>
</svg>
