<svg width="24" height="24" viewBox="0 0 24 24" fill="none" xmlns="http://www.w3.org/2000/svg">
<g id="Image / filter hdr">
<mask id="mask0_70_9596" style="mask-type:alpha" maskUnits="userSpaceOnUse" x="2" y="6" width="20" height="12">
<g id="Icon Mask">
<path id="Round" d="M13.1992 6.73752L10.2492 10.6675L12.4992 13.6675C12.8292 14.1075 12.7392 14.7375 12.2992 15.0675C11.8592 15.3975 11.2292 15.3175 10.8992 14.8675C9.8492 13.4675 8.5892 11.7975 7.7992 10.7275C7.3992 10.1975 6.5992 10.1975 6.1992 10.7275L2.1992 16.0575C1.7092 16.7275 2.1792 17.6675 2.9992 17.6675H20.9992C21.8192 17.6675 22.2892 16.7275 21.7992 16.0675L14.7992 6.73752C14.3992 6.19752 13.5992 6.19752 13.1992 6.73752Z" fill="black"/>
</g>
</mask>
<g mask="url(#mask0_70_9596)">
<rect id="Color Fill" width="24" height="24" fill="#858C94"/>
</g>
</g>
</svg>
