<svg width="24" height="24" viewBox="0 0 24 24" fill="none" xmlns="http://www.w3.org/2000/svg">
<g id="AV / pause">
<mask id="mask0_70_5938" style="mask-type:alpha" maskUnits="userSpaceOnUse" x="6" y="5" width="12" height="14">
<g id="Icon Mask">
<path id="Round" fill-rule="evenodd" clip-rule="evenodd" d="M10 17C10 18.1 9.1 19 8 19C6.9 19 6 18.1 6 17V7C6 5.9 6.9 5 8 5C9.1 5 10 5.9 10 7V17ZM14 17V7C14 5.9 14.9 5 16 5C17.1 5 18 5.9 18 7V17C18 18.1 17.1 19 16 19C14.9 19 14 18.1 14 17Z" fill="black"/>
</g>
</mask>
<g mask="url(#mask0_70_5938)">
<rect id="Color Fill" width="24" height="24" fill="#858C94"/>
</g>
</g>
</svg>
