<svg width="24" height="24" viewBox="0 0 24 24" fill="none" xmlns="http://www.w3.org/2000/svg">
<g id="Notifications / priority high">
<mask id="mask0_70_10738" style="mask-type:alpha" maskUnits="userSpaceOnUse" x="10" y="3" width="4" height="18">
<g id="Icon Mask">
<path id="Round" fill-rule="evenodd" clip-rule="evenodd" d="M10 5C10 3.9 10.9 3 12 3C13.1 3 14 3.9 14 5V13C14 14.1 13.1 15 12 15C10.9 15 10 14.1 10 13V5ZM10 19C10 17.8954 10.8954 17 12 17C13.1046 17 14 17.8954 14 19C14 20.1046 13.1046 21 12 21C10.8954 21 10 20.1046 10 19Z" fill="black"/>
</g>
</mask>
<g mask="url(#mask0_70_10738)">
<rect id="Color Fill" width="24" height="24" fill="#858C94"/>
</g>
</g>
</svg>
