<svg width="24" height="24" viewBox="0 0 24 24" fill="none" xmlns="http://www.w3.org/2000/svg">
<g id="Maps / person pin">
<mask id="mask0_70_8907" style="mask-type:alpha" maskUnits="userSpaceOnUse" x="3" y="1" width="18" height="22">
<g id="Icon Mask">
<path id="Round" fill-rule="evenodd" clip-rule="evenodd" d="M19 1.70898H5C3.89 1.70898 3 2.60898 3 3.70898V17.709C3 18.809 3.9 19.709 5 19.709H9L11.29 21.999C11.68 22.389 12.31 22.389 12.7 21.999L15 19.709H19C20.1 19.709 21 18.809 21 17.709V3.70898C21 2.60898 20.1 1.70898 19 1.70898ZM12 5.00898C13.49 5.00898 14.7 6.21898 14.7 7.70898C14.7 9.19898 13.49 10.409 12 10.409C10.51 10.409 9.3 9.19898 9.3 7.70898C9.3 6.21898 10.51 5.00898 12 5.00898ZM6 14.809V15.709H18V14.809C18 12.809 14 11.709 12 11.709C10 11.709 6 12.809 6 14.809Z" fill="black"/>
</g>
</mask>
<g mask="url(#mask0_70_8907)">
<rect id="Color Fill" width="24" height="24" fill="#858C94"/>
</g>
</g>
</svg>
